<svg width="160" height="48" xmlns="http://www.w3.org/2000/svg" xml:space="preserve" version="1.1">
 <metadata id="metadata8">image/svg+xml</metadata>

 <g>
  <title>Layer 1</title>
  <g transform="matrix(0.660399 0 0 -0.660399 11.3892 39.514)" id="g10">
   <g transform="translate(19.7167 -4.86164) scale(0.1 0.1)" id="g12">
    <path id="path14" d="m1940.31811,-5.93898l-27.11,0l0,561.66l27.11,0l0,-561.66" fill="#ffff10" fill-rule="nonzero"/>
    <path id="path16" d="m-318.65219,294.54502l126.8553,0c11.262,0 23.988,-0.746 31.465,4.86c4.008,3.008 5.898,9.359 5.898,12.644l0,11.598c0.114,7.492 -0.871,12.156 -5.734,16.66c-6.215,5.758 -20.344,4.805 -31.605,4.805l-122.5785,0c-2.8711,0 -4.3008,-1.559 -4.3008,-4.207l0,-46.36zm137.1253,96.274c25.386,0 48.289,-5.746 59.336,-17.227c11.039,-11.476 16.562,-20.902 16.562,-43.422l0,-5.007c0,-16.633 -0.949,-27.219 -10.855,-42.911c-7.196,-11.398 -18.301,-20.554 -35.743,-23.648l49.196,-91.359c1.101,-1.102 1.433,-2.762 0.996,-4.969c-0.449,-2.207 -2.211,-3.313 -5.305,-3.313l-42.722,0c-2.875,0 -4.86,0.332 -5.961,0.996c-1.11,0.665 -2.215,1.77 -3.317,3.313l-52.332,95.332l-106.9803,0l0,-92.355c0,-4.852 -2.4375,-7.286 -7.2891,-7.286l-35.77341,0c-5.08203,0 -7.61719,2.434 -7.61719,7.286l0,214.636c0,6.621 3.3125,9.934 9.9375,9.934l177.8675,0" fill="#2d3b59" fill-rule="nonzero"/>
    <path id="path18" d="m74.50411,341.47102c-0.887,1.543 -2.102,2.313 -3.645,2.313l-1.988,0c-1.547,0 -2.762,-0.77 -3.64,-2.313l-95.723,-178.199c-1.551,-2.871 -4.094,-4.309 -7.621,-4.309l-43.059,0c-2.871,0 -4.586,0.715 -5.133,2.161c-0.554,1.425 -0.281,3.25 0.828,5.457l108.641,199.062c5.52,9.941 10.93,16.617 16.231,20.047c5.296,3.418 11.472,5.129 18.546,5.129l19.54,0c8.386,0 15.453,-1.711 21.203,-5.129c5.734,-3.43 11.367,-10.106 16.886,-20.047l109.633,-199.062c1.106,-2.207 1.379,-4.032 0.832,-5.457c-0.554,-1.446 -2.152,-2.161 -4.801,-2.161l-42.07,0c-3.754,0 -6.289,1.438 -7.617,4.309l-97.043,178.199" fill="#2d3b59" fill-rule="nonzero"/>
    <path id="path20" d="m397.43811,341.47102c-0.883,1.543 -2.102,2.313 -3.645,2.313l-1.984,0c-1.551,0 -2.766,-0.77 -3.645,-2.313l-95.723,-178.199c-1.546,-2.871 -4.089,-4.309 -7.617,-4.309l-43.062,0c-2.871,0 -4.582,0.715 -5.129,2.161c-0.555,1.425 -0.281,3.25 0.824,5.457l108.641,199.062c5.519,9.941 10.933,16.617 16.23,20.047c5.301,3.418 11.481,5.129 18.551,5.129l19.543,0c8.387,0 15.453,-1.711 21.195,-5.129c5.739,-3.43 11.371,-10.106 16.891,-20.047l109.637,-199.062c1.097,-2.207 1.371,-4.032 0.824,-5.457c-0.551,-1.446 -2.153,-2.161 -4.797,-2.161l-42.066,0c-3.762,0 -6.293,1.438 -7.622,4.309l-97.046,178.199" fill="#2d3b59" fill-rule="nonzero"/>
    <path id="path22" d="m1020.27811,341.47102c-0.88,1.543 -2.1,2.313 -3.64,2.313l-1.98,0c-1.56,0 -2.77,-0.77 -3.65,-2.313l-95.72,-178.199c-1.55,-2.871 -4.09,-4.309 -7.63,-4.309l-43.05,0c-2.87,0 -4.58,0.715 -5.13,2.161c-0.56,1.425 -0.28,3.25 0.82,5.457l108.64,199.062c5.52,9.941 10.93,16.617 16.23,20.047c5.31,3.418 11.48,5.129 18.55,5.129l19.54,0c8.39,0 15.46,-1.711 21.2,-5.129c5.74,-3.43 11.37,-10.106 16.89,-20.047l109.63,-199.062c1.11,-2.207 1.38,-4.032 0.83,-5.457c-0.55,-1.446 -2.14,-2.161 -4.8,-2.161l-42.06,0c-3.76,0 -6.29,1.438 -7.62,4.309l-97.05,178.199" fill="#ffff10" fill-rule="nonzero"/>
    <path id="path24" d="m653.62811,390.81902c4.85,0 7.28,-2.43 7.28,-7.285l0,-132.157c0,-8.839 0.71,-16.183 2.15,-22.031c1.44,-5.851 3.81,-10.488 7.13,-13.906c3.31,-3.43 7.78,-5.852 13.41,-7.285c5.63,-1.446 12.75,-2.16 21.36,-2.16l134.15,0c4.85,0 7.28,-2.43 7.28,-7.286l0,-32.46c0,-4.852 -2.43,-7.286 -7.28,-7.286l-136.13,0c-16.79,0 -31.03,1.543 -42.73,4.641c-11.71,3.086 -21.26,8.113 -28.65,15.066c-7.403,6.965 -12.813,16.008 -16.231,27.161c-3.429,11.152 -5.136,24.675 -5.136,40.574l0,137.129c0,4.855 2.539,7.285 7.621,7.285l35.776,0" fill="#ffff10" fill-rule="nonzero"/>
    <path id="path26" d="m1249.80811,258.33102l0,-49.348c0,-2.879 1.44,-4.305 4.31,-4.305l135.8,0c8.83,0 15.13,1.59 18.88,4.793c3.76,3.203 5.63,8.34 5.63,15.41l0,12.578c0,6.848 -2.05,12.043 -6.12,15.579c-4.09,3.523 -11.65,5.293 -22.7,5.293l-135.8,0zm0,36.101l135.8,0c11.05,0 18.55,1.656 22.52,4.973c3.99,3.308 5.97,8.164 5.97,14.57l0,11.266c0,6.84 -1.93,11.863 -5.79,15.066c-3.87,3.199 -10.11,4.805 -18.72,4.805l-135.47,0c-2.87,0 -4.31,-1.442 -4.31,-4.309l0,-46.371zm150.05,96.387c22.73,0 38.92,-4.524 48.52,-13.578c9.61,-9.059 14.41,-22.75 14.41,-41.075l0,-15.898c0,-18.547 -7.07,-32.574 -21.2,-42.059c15.23,-8.835 22.85,-23.082 22.85,-42.73l0,-19.211c0,-8.836 -1,-16.785 -2.98,-23.848c-1.98,-7.07 -5.24,-13.086 -9.76,-18.054c-4.53,-4.961 -10.56,-8.782 -18.06,-11.426c-7.51,-2.649 -16.78,-3.977 -27.82,-3.977l-196.75,0c-6.62,0 -9.93,3.313 -9.93,9.942l0,211.98c0,6.621 3.31,9.934 9.93,9.934l190.79,0" fill="#ffff10" fill-rule="nonzero"/>
    <path id="path28" d="m1727.00811,390.81902c4.85,0 7.28,-2.43 7.28,-7.285l0,-31.469c0,-4.859 -2.43,-7.285 -7.28,-7.285l-165.95,0c-6.4,0 -10.93,-1.656 -13.58,-4.965c-2.65,-3.316 -3.97,-7.844 -3.97,-13.586l0,-11.258c0,-12.367 5.74,-18.551 17.22,-18.551l124.21,0c19.21,0 33.67,-4.918 43.39,-14.734c9.71,-9.832 14.58,-23.914 14.58,-42.234l0,-26.493c0,-16.125 -4.76,-29.152 -14.25,-39.093c-9.5,-9.93 -24.3,-14.903 -44.39,-14.903l-183.49,0c-5.08,0 -7.62,2.434 -7.62,7.286l0,31.464c0,4.864 2.54,7.297 7.62,7.297l173.89,0c6.4,0 10.93,1.649 13.58,4.961c2.65,3.309 3.97,7.84 3.97,13.582l0,13.586c0,12.363 -5.74,18.543 -17.22,18.543l-124.2,0c-19.22,0 -33.68,4.914 -43.39,14.738c-9.73,9.825 -14.58,23.903 -14.58,42.231l0,24.18c0,16.113 4.75,29.144 14.25,39.082c9.49,9.937 24.28,14.906 44.37,14.906l175.56,0" fill="#ffff10" fill-rule="nonzero"/>
   </g>
  </g>
 </g>
</svg>